<svg width="121" height="34" viewBox="0 0 111 24" fill="none" xmlns="http://www.w3.org/2000/svg">
<path d="M37.128 21C36.984 21 36.896 20.928 36.864 20.784L33.696 4.464V4.416C33.696 4.272 33.768 4.2 33.912 4.2H35.184C35.344 4.2 35.432 4.272 35.448 4.416L37.704 17.04C37.72 17.072 37.736 17.088 37.752 17.088C37.768 17.088 37.784 17.072 37.8 17.04L39.744 4.416C39.776 4.272 39.856 4.2 39.984 4.2H41.088C41.232 4.2 41.312 4.272 41.328 4.416L43.368 17.04C43.384 17.072 43.4 17.088 43.416 17.088C43.432 17.088 43.448 17.072 43.464 17.04L45.528 4.416C45.56 4.272 45.64 4.2 45.768 4.2H47.04C47.12 4.2 47.176 4.224 47.208 4.272C47.256 4.32 47.272 4.384 47.256 4.464L44.28 20.784C44.264 20.928 44.176 21 44.016 21H42.84C42.712 21 42.632 20.928 42.6 20.784L40.584 8.112C40.568 8.08 40.544 8.064 40.512 8.064C40.496 8.064 40.488 8.08 40.488 8.112L38.52 20.784C38.504 20.928 38.424 21 38.28 21H37.128ZM57.1911 15.336C57.1911 15.496 57.1111 15.576 56.9511 15.576H51.4791C51.4151 15.576 51.3831 15.608 51.3831 15.672V17.424C51.3831 18.096 51.5671 18.648 51.9351 19.08C52.3191 19.496 52.8151 19.704 53.4231 19.704C53.9351 19.704 54.3671 19.552 54.7191 19.248C55.0871 18.928 55.3271 18.52 55.4391 18.024C55.4871 17.88 55.5751 17.808 55.7031 17.808L56.9031 17.856C56.9671 17.856 57.0231 17.88 57.0711 17.928C57.1191 17.976 57.1351 18.04 57.1191 18.12C56.9911 19.064 56.5991 19.816 55.9431 20.376C55.3031 20.92 54.4631 21.192 53.4231 21.192C52.2871 21.192 51.3751 20.856 50.6871 20.184C50.0151 19.512 49.6791 18.624 49.6791 17.52V12.336C49.6791 11.248 50.0151 10.368 50.6871 9.696C51.3751 9.008 52.2871 8.664 53.4231 8.664C54.5751 8.664 55.4871 9.008 56.1591 9.696C56.8471 10.368 57.1911 11.248 57.1911 12.336V15.336ZM53.4231 10.152C52.8151 10.152 52.3191 10.368 51.9351 10.8C51.5671 11.216 51.3831 11.768 51.3831 12.456V14.064C51.3831 14.128 51.4151 14.16 51.4791 14.16H55.4151C55.4791 14.16 55.5111 14.128 55.5111 14.064V12.456C55.5111 11.768 55.3191 11.216 54.9351 10.8C54.5511 10.368 54.0471 10.152 53.4231 10.152ZM65.2605 8.736C65.6605 8.736 66.0045 8.824 66.2925 9C66.4045 9.064 66.4445 9.168 66.4125 9.312L66.1245 10.56C66.1085 10.704 66.0125 10.752 65.8365 10.704C65.6445 10.608 65.4045 10.56 65.1165 10.56C64.9885 10.56 64.8925 10.568 64.8285 10.584C64.2525 10.616 63.7805 10.92 63.4125 11.496C63.0445 12.056 62.8605 12.744 62.8605 13.56V20.76C62.8605 20.92 62.7805 21 62.6205 21H61.3965C61.2365 21 61.1565 20.92 61.1565 20.76V9.096C61.1565 8.936 61.2365 8.856 61.3965 8.856H62.6205C62.7805 8.856 62.8605 8.936 62.8605 9.096V10.536C62.8605 10.584 62.8685 10.608 62.8845 10.608C62.9165 10.608 62.9485 10.592 62.9805 10.56C63.4445 9.344 64.2045 8.736 65.2605 8.736ZM69.8443 21C69.6843 21 69.6043 20.92 69.6043 20.76V4.44C69.6043 4.28 69.6843 4.2 69.8443 4.2H71.0683C71.2283 4.2 71.3083 4.28 71.3083 4.44V14.088C71.3083 14.12 71.3243 14.144 71.3563 14.16C71.3883 14.176 71.4123 14.168 71.4283 14.136L75.0283 9C75.0923 8.904 75.1883 8.856 75.3163 8.856H76.5643C76.6603 8.856 76.7243 8.888 76.7563 8.952C76.7883 9 76.7723 9.064 76.7083 9.144L74.3323 12.552C74.2843 12.6 74.2763 12.648 74.3083 12.696L77.1403 20.736L77.1643 20.832C77.1643 20.944 77.0923 21 76.9483 21H75.6763C75.5323 21 75.4363 20.936 75.3883 20.808L73.2523 14.136C73.2363 14.04 73.1883 14.032 73.1083 14.112L71.3563 16.608C71.3243 16.64 71.3083 16.68 71.3083 16.728V20.76C71.3083 20.92 71.2283 21 71.0683 21H69.8443ZM84.0165 21.192C82.8805 21.192 81.9685 20.856 81.2805 20.184C80.6085 19.512 80.2725 18.624 80.2725 17.52V12.336C80.2725 11.248 80.6165 10.368 81.3045 9.696C81.9925 9.008 82.8965 8.664 84.0165 8.664C84.7685 8.664 85.4325 8.816 86.0085 9.12C86.5845 9.424 87.0245 9.832 87.3285 10.344C87.6485 10.84 87.8085 11.392 87.8085 12V12.24C87.8085 12.4 87.7285 12.48 87.5685 12.48L86.3445 12.528C86.1845 12.528 86.1045 12.448 86.1045 12.288V12.12C86.1045 11.592 85.9045 11.136 85.5045 10.752C85.1205 10.352 84.6245 10.152 84.0165 10.152C83.4085 10.152 82.9125 10.368 82.5285 10.8C82.1605 11.216 81.9765 11.768 81.9765 12.456V17.4C81.9765 18.088 82.1605 18.648 82.5285 19.08C82.9125 19.496 83.4085 19.704 84.0165 19.704C84.6245 19.704 85.1205 19.512 85.5045 19.128C85.9045 18.728 86.1045 18.264 86.1045 17.736V17.568C86.1045 17.408 86.1845 17.328 86.3445 17.328L87.5685 17.352C87.7285 17.352 87.8085 17.432 87.8085 17.592V17.856C87.8085 18.816 87.4565 19.616 86.7525 20.256C86.0645 20.88 85.1525 21.192 84.0165 21.192ZM95.1368 21.192C93.9848 21.192 93.0648 20.856 92.3768 20.184C91.7048 19.512 91.3688 18.624 91.3688 17.52V12.36C91.3688 11.272 91.7128 10.384 92.4008 9.696C93.0888 9.008 94.0008 8.664 95.1368 8.664C96.2888 8.664 97.2088 9.008 97.8968 9.696C98.5848 10.384 98.9288 11.272 98.9288 12.36V17.52C98.9288 18.624 98.5848 19.512 97.8968 20.184C97.2088 20.856 96.2888 21.192 95.1368 21.192ZM95.1368 19.68C95.7448 19.68 96.2408 19.472 96.6248 19.056C97.0248 18.64 97.2248 18.088 97.2248 17.4V12.456C97.2248 11.768 97.0248 11.216 96.6248 10.8C96.2408 10.368 95.7448 10.152 95.1368 10.152C94.5288 10.152 94.0328 10.368 93.6488 10.8C93.2648 11.216 93.0728 11.768 93.0728 12.456V17.4C93.0728 18.088 93.2648 18.64 93.6488 19.056C94.0328 19.472 94.5288 19.68 95.1368 19.68ZM107.354 8.688C108.33 8.688 109.082 9.024 109.61 9.696C110.154 10.368 110.426 11.304 110.426 12.504V20.76C110.426 20.92 110.346 21 110.186 21H108.962C108.802 21 108.722 20.92 108.722 20.76V12.648C108.722 11.864 108.546 11.256 108.194 10.824C107.858 10.392 107.386 10.176 106.778 10.176C106.138 10.176 105.634 10.408 105.266 10.872C104.914 11.336 104.738 11.968 104.738 12.768V20.76C104.738 20.92 104.658 21 104.498 21H103.274C103.114 21 103.034 20.92 103.034 20.76V9.096C103.034 8.936 103.114 8.856 103.274 8.856H104.498C104.658 8.856 104.738 8.936 104.738 9.096V9.864C104.738 9.896 104.754 9.92 104.786 9.936C104.818 9.952 104.842 9.936 104.858 9.888C105.146 9.488 105.506 9.192 105.938 9C106.386 8.792 106.858 8.688 107.354 8.688Z" fill="#484848"/>
<g clip-path="url(#clip0_0_1)">
<path d="M13.4311 10.8559C13.8473 11.3365 14.3185 11.8535 14.8151 12.3984C15.5109 13.1618 16.2822 14.0079 17.1086 14.9771C16.9391 15.169 16.8217 15.4394 16.8049 15.7942C16.804 15.8089 16.804 15.8236 16.804 15.8383V17.6696H9.8558C9.85309 17.2656 9.84903 16.3456 9.85716 15.9462L9.85761 15.9329C9.86168 15.7883 9.87433 15.3475 9.53274 14.9899C9.52687 14.9839 9.521 14.9775 9.51467 14.9715C10.5213 13.9028 12.4936 11.8149 13.4311 10.8559ZM13.437 9.78851C13.2165 9.78851 13.0421 9.95241 12.9002 10.0961C11.6807 11.3352 8.24096 14.9963 8.24096 14.9963C7.75073 15.5275 8.41627 15.5367 8.41627 15.5426H8.61011C8.61056 15.5426 8.61146 15.5426 8.61192 15.5426C8.98377 15.5426 8.95621 15.7979 8.9535 15.9278C8.94266 16.4636 8.9535 17.8734 8.9535 17.8734L8.92323 18.2958C8.92323 18.5579 9.19749 18.5937 9.34704 18.5937C9.40352 18.5937 9.44238 18.5887 9.44238 18.5887H17.2708C17.8658 18.5887 17.7082 18.2434 17.7082 18.2434V15.8383C17.7204 15.5821 17.8229 15.5321 17.916 15.5321C17.9458 15.5321 17.9747 15.5371 17.9996 15.5426C18.0493 15.5532 18.0705 15.5601 18.0994 15.5601C18.1252 15.5601 18.1564 15.5546 18.2192 15.5422C18.4252 15.5004 18.6466 15.399 18.3841 15.0813C16.6527 12.9869 15.1273 11.4371 14.0144 10.1388C13.7921 9.87941 13.6019 9.78851 13.437 9.78851Z" fill="#484848"/>
<path d="M24.1304 21.6458C24.1037 21.6458 24.0879 21.6444 24.0879 21.6444H20.6653C20.6476 21.6453 20.6296 21.6458 20.6129 21.6458C20.4579 21.6458 20.354 21.6113 20.3038 21.5438C20.2636 21.4901 20.2722 21.4337 20.2753 21.419V20.8166C20.2803 20.5655 20.4796 20.5384 20.565 20.5384C20.6043 20.5384 20.6314 20.5435 20.6327 20.544L22.9637 20.5435C23.36 20.5288 23.3943 20.1721 23.3957 20.1569V16.0587C23.3957 15.2209 23.6478 15.152 23.6799 15.1465C23.8968 15.0781 24.0169 14.9817 24.0359 14.8601C24.0761 14.6057 23.6758 14.3138 23.6717 14.3105L16.3485 7.51613C16.1212 7.25858 15.8989 7.12912 15.6875 7.12912C15.4295 7.12912 15.2284 7.32102 15.0956 7.44773C14.9053 7.62952 14.5958 7.86779 14.3469 8.05922C14.285 8.10697 14.2267 8.1515 14.1756 8.19144C13.989 8.33697 13.811 8.41088 13.647 8.41088C13.4812 8.41088 13.3248 8.33743 13.1699 8.18593C13.0781 8.09641 13.0307 7.98944 13.0289 7.86824C13.0253 7.669 13.1446 7.48996 13.215 7.41559C13.6664 6.94228 15.1453 5.66052 15.1597 5.64767C15.3287 5.47367 15.5252 5.38507 15.743 5.38507C16.18 5.38507 16.545 5.73765 16.5604 5.75234L26.8102 15.1364C26.9498 15.2631 27.0022 15.3903 26.9656 15.5143C26.8838 15.7929 26.3692 15.9582 26.2011 15.9839C26.1396 15.9931 26.0362 15.9981 25.8925 15.9981C25.6499 15.9981 25.3724 15.9844 25.3697 15.9844C25.1479 15.9945 24.9802 16.0615 24.8736 16.1836C24.7363 16.3406 24.7485 16.5375 24.7485 16.5398V21.0659C24.7494 21.604 24.2758 21.6458 24.1304 21.6458Z" fill="#484848"/>
<path d="M15.7435 5.40754C16.1764 5.40754 16.5451 5.76884 16.5451 5.76884L26.7957 15.1538C27.304 15.6152 26.4541 15.9228 26.1989 15.9618C26.1306 15.9724 26.0163 15.9756 25.8939 15.9756C25.649 15.9756 25.372 15.9618 25.372 15.9618C24.6861 15.9926 24.7272 16.5417 24.7272 16.5417V21.0664C24.7272 21.5837 24.2709 21.6232 24.1308 21.6232C24.1055 21.6232 24.0906 21.6219 24.0906 21.6219H20.6662C20.6477 21.6228 20.6305 21.6232 20.6138 21.6232C20.2428 21.6232 20.2989 21.4222 20.2989 21.4222V20.8171C20.3034 20.5935 20.471 20.5618 20.5659 20.5618C20.6034 20.5618 20.6296 20.5669 20.6296 20.5669H22.9647C23.3871 20.5513 23.4192 20.1592 23.4192 20.1592V16.0587C23.4192 15.1942 23.6858 15.169 23.6858 15.169C24.533 14.9036 23.6858 14.2922 23.6858 14.2922L16.3634 7.49958C16.1041 7.20577 15.8791 7.10614 15.687 7.10614C15.42 7.10614 15.2176 7.29942 15.0798 7.43117C14.8426 7.6575 14.416 7.97473 14.1617 8.17305C13.9638 8.3273 13.7943 8.3879 13.647 8.3879C13.4627 8.3879 13.3127 8.29333 13.1857 8.16938C12.9182 7.90816 13.113 7.55559 13.2313 7.43117C13.6872 6.95281 15.1747 5.66463 15.1747 5.66463C15.3599 5.47411 15.5574 5.40754 15.7435 5.40754ZM15.7435 5.36163C15.5199 5.36163 15.3183 5.45253 15.1439 5.63111C15.0897 5.6784 13.6448 6.93169 13.1988 7.3995C13.1256 7.47662 13.0023 7.66163 13.0063 7.86868C13.0086 7.99676 13.0583 8.10878 13.1545 8.20289C13.314 8.35852 13.4753 8.43427 13.6475 8.43427C13.8165 8.43427 13.999 8.35898 14.1897 8.20978C14.2407 8.16984 14.299 8.12485 14.3614 8.0771C14.6103 7.88567 14.9198 7.6474 15.1109 7.46469C15.2488 7.33293 15.4381 7.15205 15.687 7.15205C15.8922 7.15205 16.1086 7.27922 16.33 7.52988L16.3313 7.53171L16.3331 7.53309L23.6542 14.3257L23.656 14.3275L23.6582 14.3293C23.7676 14.4083 24.045 14.6576 24.0134 14.8564C23.9957 14.9684 23.8814 15.0584 23.6745 15.124C23.6243 15.1327 23.3727 15.2177 23.3727 16.0582V20.156C23.3695 20.1849 23.3288 20.5067 22.9619 20.5201H20.6323C20.6224 20.5187 20.5975 20.515 20.565 20.515C20.373 20.515 20.2564 20.627 20.2528 20.8152V21.4162C20.2464 21.4474 20.2474 21.5057 20.2858 21.5576C20.3404 21.631 20.4507 21.6687 20.6129 21.6687C20.6301 21.6687 20.6481 21.6682 20.6676 21.6673H24.0884C24.0938 21.6678 24.1087 21.6687 24.1304 21.6687C24.4403 21.6687 24.772 21.5103 24.772 21.0659V16.5412V16.5394V16.5375C24.772 16.5357 24.7607 16.3475 24.8917 16.1978C24.9943 16.0812 25.1556 16.0169 25.3716 16.0068C25.3982 16.0082 25.6616 16.0206 25.8934 16.0206C26.038 16.0206 26.1428 16.0155 26.2052 16.0064C26.3841 15.9793 26.9019 15.8131 26.9878 15.5207C27.0271 15.3875 26.9724 15.2521 26.8255 15.119L16.5753 5.73487C16.5609 5.72064 16.189 5.36163 15.7435 5.36163Z" fill="#484848"/>
<path d="M16.7207 2.67495C16.3525 2.37608 15.8288 1.80453 14.8546 2.69744C12.173 5.15445 4.06856 12.4575 4.06856 12.4575C4.06856 12.4575 2.37646 13.6534 4.34599 13.8954C4.34599 13.8954 4.73727 13.9307 4.73727 15.162L4.77929 20.9579C4.77929 20.9579 4.82628 21.5166 5.44664 21.5382L9.28584 21.4955C9.28584 21.4955 9.76252 21.4078 9.77156 21.8517V22.7134C9.77156 22.7134 9.86147 23.026 9.23208 22.998H4.20366C4.20366 22.998 3.26882 23.077 3.26882 22.207V15.7643C3.26882 15.7643 3.32892 14.9825 2.32224 14.9384C2.32224 14.9384 1.40819 14.9829 1.10772 14.9384C0.753487 14.8856 -0.515703 14.4453 0.231172 13.7879L14.795 0.424068C14.795 0.424068 15.7551 -0.528986 16.6082 0.424068C16.6082 0.424068 18.5524 2.27371 19.2216 2.95453C19.3955 3.13173 19.7032 3.53572 19.3106 3.90758C18.9749 4.22527 18.5529 4.16742 17.8769 3.69916C17.5566 3.47696 17.1165 2.9963 16.7207 2.67495Z" fill="#484848"/>
</g>
<defs>
<clipPath id="clip0_0_1">
<rect width="27" height="24" fill="#484848"/>
</clipPath>
</defs>
</svg>
